# xmcd
#
# Track frame offsets:
#	150
#	12775
#	28602
#	41445
#	57222
#	72292
#	94557
#	109295
#	125230
#	138397
#
# Disc length: 2113 seconds
#
# Revision: 0
# Processed by: cddbd v1.5.1PL0 Copyright (c) Steve Scherf et al.
# Submitted via: audiograbber 1.83.01
#
DISCID=85083f0a
DTITLE=Pam Tillis - Super Hits
DYEAR=2004
DGENRE=Country
TTITLE0=Put Yourself In My Place
TTITLE1=One Of Those Things
TTITLE2=Mi Vida Loca (My Crazy Life)
TTITLE3=Let That Pony Run
TTITLE4=In Between Dances
TTITLE5=Homeward Looking Angel
TTITLE6=All The Good Ones Are Gone
TTITLE7=You Can't Have A Good Time Without Me
TTITLE8=A Whisper And A Scream
TTITLE9=Jagged Hearts
EXTD=
EXTT0=
EXTT1=
EXTT2=
EXTT3=
EXTT4=
EXTT5=
EXTT6=
EXTT7=
EXTT8=
EXTT9=
PLAYORDER=
